# xmcd
#
# Track frame offsets:
#	150
#	19499
#	36998
#	53129
#	70933
#	88397
#	105351
#	123376
#	140726
#	157811
#	176174
#	190803
#
# Disc length: 2784 seconds
#
# Revision: 0
# Processed by: cddbd v1.5.1PL0 Copyright (c) Steve Scherf et al.
# Submitted via: dBpowerAMP V4.0
#
DISCID=aa0ade0c
DTITLE=silvano - laisse aller
DYEAR=1900
DGENRE=Blues
TTITLE0=silvano - encore
TTITLE1=silvano - meme
TTITLE2=silvano - je sais que tu m'aimes
TTITLE3=silvano - c'est la vie
TTITLE4=silvano - pardonne moi
TTITLE5=silvano - tu me suffis
TTITLE6=silvano - ailleur
TTITLE7=silvano - laisse aller
TTITLE8=silvano - pour une autre histoire
TTITLE9=silvano - des gens de passage
TTITLE10=silvano - grande muraille
TTITLE11=silvano - puisque tu pars
EXTD=
EXTT0=
EXTT1=
EXTT2=
EXTT3=
EXTT4=
EXTT5=
EXTT6=
EXTT7=
EXTT8=
EXTT9=
EXTT10=
EXTT11=
PLAYORDER=
